<?xml version="1.0" encoding="UTF-8"?>
<svg width="255px" height="148px" viewBox="0 0 255 148" version="1.1" xmlns="http://www.w3.org/2000/svg" xmlns:xlink="http://www.w3.org/1999/xlink">
    <!-- Generator: Sketch 41 (35326) - http://www.bohemiancoding.com/sketch -->
    <title>logo-atlantis-colored</title>
    <desc>Created with Sketch.</desc>
    <defs></defs>
    <g id="Symbols" stroke="none" stroke-width="1" fill="none" fill-rule="evenodd">
        <g id="branding" transform="translate(-954.000000, -652.000000)">
            <g id="5" transform="translate(954.000000, 652.000000)">
                <g id="logo-atlantis-colored">
                    <path d="M234.880198,126.627119 C235.643564,121.542373 235.89802,116.457627 235.89802,111.118644 C235.89802,50.1016949 186.279208,0.525423729 125.209901,0.525423729 C64.1405941,0.525423729 14.5217822,50.1016949 14.5217822,111.118644 C14.5217822,117.983051 15.2851485,124.847458 16.3029703,131.457627 L0.526732673,147.728814 L254.982178,147.728814 L234.880198,126.627119 Z M22.9188119,124.59322 C22.409901,120.271186 21.9009901,115.694915 21.9009901,111.118644 C21.9009901,81.6271186 34.3693069,54.9322034 54.4712871,36.1186441 C54.7257426,36.3728814 55.2346535,36.3728814 55.7435644,36.3728814 L59.8148515,36.3728814 C61.0871287,36.3728814 62.3594059,35.3559322 62.3594059,33.8305085 C62.3594059,32.559322 61.3415842,31.2881356 59.8148515,31.2881356 C77.6267327,16.5423729 100.527723,7.89830508 125.209901,7.89830508 C138.950495,7.89830508 152.182178,10.6949153 164.141584,15.5254237 C163.887129,16.0338983 163.632673,16.5423729 163.632673,17.0508475 C163.632673,18.3220339 164.650495,19.5932203 166.177228,19.5932203 L168.721782,19.5932203 C169.485149,19.5932203 170.248515,19.0847458 170.757426,18.5762712 C186.533663,26.4576271 200.274257,38.1525424 210.19802,52.6440678 L208.925743,52.6440678 C207.653465,52.6440678 206.381188,53.6610169 206.381188,55.1864407 C206.381188,56.7118644 207.39901,57.7288136 208.925743,57.7288136 L213.505941,57.7288136 C223.175248,73.2372881 228.518812,91.7966102 228.518812,111.372881 C228.518812,114.169492 228.264356,116.966102 228.264356,119.762712 L194.930693,84.9322034 L169.230693,111.627119 L130.29901,71.2033898 L74.3188119,129.423729 L46.3287129,100.186441 L22.9188119,124.59322 Z" id="Shape" fill="#0C0C0D"></path>
                    <path d="M84.7514851,140.101695 L79.6623762,134.762712 L86.0237624,128.152542 L102.054455,128.152542 C103.326733,128.152542 104.59901,127.135593 104.59901,125.610169 C104.59901,124.084746 103.581188,123.067797 102.054455,123.067797 L90.8584158,123.067797 L101.545545,111.881356 L113.250495,111.881356 C114.522772,111.881356 115.79505,110.864407 115.79505,109.338983 C115.79505,108.067797 114.777228,106.79661 113.250495,106.79661 L106.380198,106.79661 L114.777228,98.1525424 L123.428713,98.1525424 C124.70099,98.1525424 125.973267,97.1355932 125.973267,95.6101695 C125.973267,94.0847458 124.955446,93.0677966 123.428713,93.0677966 L119.611881,93.0677966 L130.553465,81.8813559 L186.533663,139.847458 L84.7514851,139.847458 L84.7514851,140.101695 Z" id="Path" fill="#E42A7B"></path>
                    <path d="M196.711881,140.101695 L175.592079,118.237288 L187.551485,118.237288 C188.823762,118.237288 190.09604,117.220339 190.09604,115.694915 C190.09604,114.423729 189.078218,113.152542 187.551485,113.152542 L178.136634,113.152542 L186.788119,104.254237 L192.386139,104.254237 C193.658416,104.254237 194.930693,103.237288 194.930693,101.711864 C194.930693,100.440678 193.912871,99.1694915 192.386139,99.1694915 L191.622772,99.1694915 L194.930693,95.8644068 L237.679208,140.101695 L196.711881,140.101695 L196.711881,140.101695 Z" id="Path" fill="#FFCCA9"></path>
                    <path d="M18.5930693,140.101695 L18.5930693,140.101695 L18.5930693,140.101695 L21.9009901,136.288136 L32.0792079,136.288136 C33.3514851,136.288136 34.6237624,135.271186 34.6237624,133.745763 C34.6237624,132.220339 33.6059406,131.20339 32.0792079,131.20339 L26.7356436,131.20339 L35.8960396,121.79661 L44.0386139,121.79661 C45.3108911,121.79661 46.5831683,120.779661 46.5831683,119.254237 C46.5831683,117.728814 45.5653465,116.711864 44.0386139,116.711864 L40.7306931,116.711864 L46.3287129,110.864407 L74.3188119,139.847458 L18.5930693,139.847458 L18.5930693,140.101695 Z" id="Path" fill="#3192E1"></path>
                    <path d="M74.3188119,52.6440678 L69.9930693,52.6440678 C68.7207921,52.6440678 67.4485149,53.6610169 67.4485149,55.1864407 C67.4485149,56.7118644 68.4663366,57.7288136 69.9930693,57.7288136 L74.3188119,57.7288136 C75.5910891,57.7288136 76.8633663,56.7118644 76.8633663,55.1864407 C76.8633663,53.6610169 75.8455446,52.6440678 74.3188119,52.6440678 L74.3188119,52.6440678 Z" id="Shape" fill="#FFCCA9"></path>
                    <path d="M84.7514851,60.2711864 C83.4792079,60.2711864 82.2069307,61.2881356 82.2069307,62.8135593 C82.2069307,64.3389831 83.2247525,65.3559322 84.7514851,65.3559322 L88.5683168,65.3559322 C89.8405941,65.3559322 91.1128713,64.3389831 91.1128713,62.8135593 C91.1128713,61.2881356 89.8405941,60.2711864 88.5683168,60.2711864 L84.7514851,60.2711864 Z" id="Shape" fill="#FFCCA9"></path>
                    <path d="M115.031683,38.4067797 L110.451485,38.4067797 C109.179208,38.4067797 107.906931,39.4237288 107.906931,40.9491525 C107.906931,42.220339 108.924752,43.4915254 110.451485,43.4915254 L115.031683,43.4915254 C116.30396,43.4915254 117.576238,42.4745763 117.576238,40.9491525 C117.321782,39.6779661 116.30396,38.4067797 115.031683,38.4067797 L115.031683,38.4067797 Z" id="Shape" fill="#E42A7B"></path>
                    <path d="M208.925743,75.5254237 L214.778218,75.5254237 C216.050495,75.5254237 217.322772,74.5084746 217.322772,72.9830508 C217.322772,71.7118644 216.30495,70.440678 214.778218,70.440678 L208.925743,70.440678 C207.653465,70.440678 206.381188,71.4576271 206.381188,72.9830508 C206.381188,74.5084746 207.653465,75.5254237 208.925743,75.5254237 L208.925743,75.5254237 Z" id="Shape" fill="#E42A7B"></path>
                    <path d="M51.1633663,72.9830508 L47.8554455,72.9830508 C46.5831683,72.9830508 45.3108911,74 45.3108911,75.5254237 C45.3108911,77.0508475 46.3287129,78.0677966 47.8554455,78.0677966 L51.1633663,78.0677966 C52.4356436,78.0677966 53.7079208,77.0508475 53.7079208,75.5254237 C53.7079208,74 52.4356436,72.9830508 51.1633663,72.9830508 L51.1633663,72.9830508 Z" id="Shape" fill="#3192E1"></path>
                    <path d="M102.054455,75.2711864 L96.9653465,75.2711864 C95.6930693,75.2711864 94.4207921,76.2881356 94.4207921,77.8135593 C94.4207921,79.0847458 95.4386139,80.3559322 96.9653465,80.3559322 L102.054455,80.3559322 C103.326733,80.3559322 104.59901,79.3389831 104.59901,77.8135593 C104.59901,76.2881356 103.581188,75.2711864 102.054455,75.2711864 L102.054455,75.2711864 Z" id="Shape" fill="#3192E1"></path>
                    <path d="M157.525743,28.7457627 L162.614851,28.7457627 C163.887129,28.7457627 165.159406,27.7288136 165.159406,26.2033898 C165.159406,24.9322034 164.141584,23.6610169 162.614851,23.6610169 L157.525743,23.6610169 C156.253465,23.6610169 154.981188,24.6779661 154.981188,26.2033898 C154.981188,27.4745763 156.253465,28.7457627 157.525743,28.7457627 L157.525743,28.7457627 Z" id="Shape" fill="#3192E1"></path>
                </g>
            </g>
        </g>
    </g>
</svg>